<?xml version="1.0" standalone="no"?>
<!DOCTYPE svg PUBLIC "-//W3C//DTD SVG 20010904//EN"
 "http://www.w3.org/TR/2001/REC-SVG-20010904/DTD/svg10.dtd">
<svg version="1.0" xmlns="http://www.w3.org/2000/svg"
 width="32.000000pt" height="32.000000pt" viewBox="0 0 32.000000 32.000000"
 preserveAspectRatio="xMidYMid meet">
<metadata>
Created by potrace 1.14, written by Peter Selinger 2001-2017
</metadata>
<g transform="translate(0.000000,32.000000) scale(0.100000,-0.100000)"
fill="#000000" stroke="none">
<path d="M4 307 c-2 -7 -3 -78 -2 -157 l3 -145 155 0 155 0 0 155 0 155 -153
3 c-119 2 -154 0 -158 -11z m196 -38 c0 -20 -3 -21 -55 -15 -45 5 -55 3 -55
-9 0 -11 19 -15 93 -17 l92 -3 0 -60 0 -60 -52 -3 c-45 -3 -53 -6 -53 -23 0
-14 7 -19 30 -19 20 0 30 -5 30 -15 0 -12 -14 -15 -70 -15 -56 0 -70 3 -70 15
0 10 10 15 30 15 23 0 30 5 30 19 0 17 -8 20 -52 23 l-53 3 -3 58 c-2 44 0 59
12 63 9 3 16 17 16 29 0 25 14 29 98 33 27 2 32 -2 32 -19z"/>
</g>
</svg>
